<svg xmlns="http://www.w3.org/2000/svg" viewBox="0 0 128 128" fill="none">
  <style>
    #light-icon { display: inline; }
    #dark-icon { display: none; }
    @media (prefers-color-scheme: dark) {
      #light-icon { display: none; }
      #dark-icon { display: inline; }
    }
  </style>

  <defs>
    <linearGradient id="bg-light" x1="14" y1="12" x2="114" y2="118" gradientUnits="userSpaceOnUse">
      <stop stop-color="#0F172A" />
      <stop offset="1" stop-color="#2563EB" />
    </linearGradient>
    <linearGradient id="bg-dark" x1="14" y1="12" x2="114" y2="118" gradientUnits="userSpaceOnUse">
      <stop stop-color="#020617" />
      <stop offset="1" stop-color="#0B1222" />
    </linearGradient>
  </defs>

  <g id="light-icon">
    <rect x="8" y="8" width="112" height="112" rx="24" fill="url(#bg-light)" />
    <rect x="8.5" y="8.5" width="111" height="111" rx="23.5" stroke="#FFFFFF" stroke-opacity="0.16" />
    <path d="M18 36a10 10 0 0 1 10-10h44l-7-7a10 10 0 1 1 14-14l24 24-24 24a10 10 0 0 1-14-14l7-7H28a10 10 0 0 1-10-10Z" fill="#E2E8F0" />
    <path d="M110 92a10 10 0 0 1-10 10H56l7 7a10 10 0 1 1-14 14L25 99l24-24a10 10 0 1 1 14 14l-7 7h44a10 10 0 0 1 10 10Z" fill="#67E8F9" />
    <circle cx="64" cy="64" r="8" fill="#22D3EE" />
  </g>

  <g id="dark-icon">
    <rect x="8" y="8" width="112" height="112" rx="24" fill="url(#bg-dark)" />
    <rect x="8.5" y="8.5" width="111" height="111" rx="23.5" stroke="#22D3EE" stroke-opacity="0.28" />
    <path d="M18 36a10 10 0 0 1 10-10h44l-7-7a10 10 0 1 1 14-14l24 24-24 24a10 10 0 0 1-14-14l7-7H28a10 10 0 0 1-10-10Z" fill="#E2E8F0" />
    <path d="M110 92a10 10 0 0 1-10 10H56l7 7a10 10 0 1 1-14 14L25 99l24-24a10 10 0 1 1 14 14l-7 7h44a10 10 0 0 1 10 10Z" fill="#22D3EE" />
    <circle cx="64" cy="64" r="8" fill="#A5F3FC" />
  </g>
</svg>
